# xmcd
#
# Track frame offsets:
#	150
#	18471
#	38425
#	55630
#	68004
#	86634
#
# Disc length: 1401 seconds
#
# Revision: 0
# Processed by: cddbd v1.5.2PL0 Copyright (c) Steve Scherf et al.
# Submitted via: EasyCDDAExtractor 9.0.0.1
#
DISCID=3d057706
DTITLE=Various Artist - Na dobr¹ drogê 1 - 2000
DYEAR=2000
DGENRE=Country
TTITLE0=Ala Boncol - Kilometrów paranojê
TTITLE1=Jan Manson Band - Bar przy autostradzie
TTITLE2=Zayazd - Easy Rider
TTITLE3=Johnny Walker Band - Gdy Beatelsi grali mi
TTITLE4=Texway - To by³ piknik
TTITLE5=Tomasz Szwed - Poradnik pocz¹tkuj¹cego kierowcy
EXTD=
EXTT0=
EXTT1=
EXTT2=
EXTT3=
EXTT4=
EXTT5=
PLAYORDER=
